<?xml version="1.0" encoding="utf-8"?>
<!-- Generator: Adobe Illustrator 16.0.0, SVG Export Plug-In . SVG Version: 6.00 Build 0)  -->
<!DOCTYPE svg PUBLIC "-//W3C//DTD SVG 1.1//EN" "http://www.w3.org/Graphics/SVG/1.1/DTD/svg11.dtd">
<svg version="1.1" id="Layer_1" xmlns="http://www.w3.org/2000/svg" xmlns:xlink="http://www.w3.org/1999/xlink" x="0px" y="0px"
	 width="128px" height="128px" viewBox="0 0 128 128" enable-background="new 0 0 128 128" xml:space="preserve">
<g>
	<g>
		<polygon fill="#F07026" points="41.459,47.502 27.964,47.447 21.152,36.287 34.397,36.338 		"/>
		<polygon fill="#EB4523" points="13.869,48.428 21.028,59.57 27.959,47.447 21.154,36.287 		"/>
	</g>
	<polygon fill="#1072B7" points="7.275,59.887 13.854,48.387 21.4,60.143 15.181,71.635 	"/>
	<g>
		<polygon fill="#00558E" points="90.678,56.387 104.167,56.262 111.128,67.334 97.882,67.453 		"/>
		<polygon fill="#1072B7" points="118.255,55.096 110.944,44.047 104.174,56.268 111.125,67.33 		"/>
	</g>
	<g>
		<polygon fill="#95C73C" points="97.159,91.143 104.418,79.771 117.496,79.984 110.366,91.146 		"/>
		<polygon fill="#BCD431" points="111.128,67.334 97.886,67.422 104.425,79.77 117.493,79.986 		"/>
	</g>
	<g>
		<polygon fill="#95C73C" points="55.019,47.467 68.51,47.369 75.447,58.453 62.201,58.551 		"/>
		<polygon fill="#BCD431" points="82.598,46.229 75.312,35.166 68.517,47.371 75.447,58.453 		"/>
	</g>
	<g>
		<polygon fill="#95C73C" points="34.526,59.51 48.017,59.385 54.98,70.455 41.735,70.578 		"/>
		<polygon fill="#BCD431" points="62.103,58.217 54.794,47.168 48.023,59.389 54.98,70.453 		"/>
	</g>
	<g>
		<polygon fill="#00558E" points="41.575,94.641 55.065,94.543 62.008,105.631 48.764,105.727 		"/>
		<polygon fill="#1072B7" points="69.151,93.4 61.865,82.34 55.072,94.547 62.008,105.627 		"/>
	</g>
	<g>
		<polygon fill="#F07026" points="75.572,35.162 62.079,35.189 55.194,24.07 68.442,24.041 		"/>
		<polygon fill="#EB4523" points="47.986,36.256 55.215,47.359 62.075,35.188 55.198,24.07 		"/>
	</g>
	<g>
		<polygon fill="#F07026" points="109.843,42.807 96.379,43.723 88.777,33.08 101.993,32.182 		"/>
		<polygon fill="#EB4523" points="82.391,45.719 90.335,56.318 96.376,43.719 88.781,33.082 		"/>
	</g>
	<g>
		<polygon fill="#00558E" points="34.887,59.383 21.412,60.133 15.185,71.633 28.41,70.895 		"/>
	</g>
	<g>
		<polygon fill="#00558E" points="69.375,93.549 82.865,93.449 89.806,104.533 76.56,104.631 		"/>
		<polygon fill="#1072B7" points="96.952,92.309 89.666,81.246 82.872,93.453 89.806,104.533 		"/>
	</g>
	<g>
		<polygon fill="#95C73C" points="61.916,57.879 68.062,69.891 61.275,81.066 55.245,69.277 		"/>
		<polygon fill="#BCD431" points="75.406,81.965 82.021,70.486 68.065,69.896 61.275,81.064 		"/>
	</g>
	<g>
		<polygon fill="#95C73C" points="28.176,71.066 34.266,83.107 27.423,94.254 21.448,82.432 		"/>
		<polygon fill="#BCD431" points="41.549,95.219 48.217,83.771 34.266,83.115 27.423,94.25 		"/>
	</g>
</g>
</svg>
